<?xml version="1.0" encoding="utf-8"?>
<!-- Generator: Adobe Illustrator 16.0.0, SVG Export Plug-In . SVG Version: 6.00 Build 0)  -->
<!DOCTYPE svg PUBLIC "-//W3C//DTD SVG 1.1//EN" "http://www.w3.org/Graphics/SVG/1.1/DTD/svg11.dtd">
<svg version="1.1" id="Layer_1" xmlns="http://www.w3.org/2000/svg" xmlns:xlink="http://www.w3.org/1999/xlink" x="0px" y="0px"
	 width="1920px" height="900px" viewBox="0 0 1920 900" enable-background="new 0 0 1920 900" xml:space="preserve">
<circle fill="#F5F5FF" cx="1517.875" cy="-18.243" r="882.088"/>
<circle fill="#FAFAFF" cx="1759.4" cy="244.282" r="505.551"/>
<path fill="#F5F5FF" d="M43.714,91.584c-0.882,0.988-2.398,1.073-3.386,0.19l-0.152-0.135c-0.988-0.883-1.073-2.399-0.19-3.387
	l22.791-25.504c0.883-0.988,2.399-1.073,3.387-0.19l0.151,0.135c0.988,0.882,1.073,2.398,0.19,3.386L43.714,91.584z"/>
<path fill="#F5F5FF" d="M66.973,89.569c-0.883,0.988-2.399,1.073-3.387,0.19L38.082,66.969c-0.987-0.883-1.073-2.399-0.19-3.387
	l0.135-0.151c0.883-0.988,2.399-1.073,3.387-0.19l25.504,22.791c0.987,0.883,1.073,2.399,0.19,3.386L66.973,89.569z"/>
<g>
	<path fill="#FAFAFF" d="M786.714,145.584c-0.882,0.988-2.398,1.073-3.386,0.19l-0.152-0.135c-0.988-0.883-1.073-2.399-0.19-3.387
		l22.791-25.504c0.883-0.988,2.399-1.073,3.387-0.19l0.151,0.135c0.988,0.882,1.073,2.398,0.19,3.386L786.714,145.584z"/>
	<path fill="#FAFAFF" d="M809.973,143.569c-0.883,0.988-2.399,1.073-3.387,0.19l-25.504-22.791c-0.987-0.883-1.073-2.399-0.19-3.387
		l0.135-0.151c0.883-0.988,2.399-1.073,3.387-0.19l25.504,22.791c0.987,0.883,1.073,2.399,0.19,3.386L809.973,143.569z"/>
</g>
<g>
	<path fill="#FAFAFF" d="M1368.715,727.584c-0.883,0.988-2.398,1.073-3.387,0.19l-0.152-0.136c-0.987-0.883-1.072-2.398-0.189-3.387
		l22.791-25.504c0.883-0.987,2.398-1.072,3.387-0.189l0.15,0.135c0.988,0.883,1.073,2.398,0.19,3.387L1368.715,727.584z"/>
	<path fill="#FAFAFF" d="M1391.973,725.569c-0.883,0.987-2.398,1.073-3.387,0.19l-25.504-22.791
		c-0.987-0.883-1.072-2.398-0.189-3.387l0.135-0.151c0.883-0.987,2.398-1.073,3.387-0.19l25.504,22.791
		c0.987,0.883,1.072,2.398,0.189,3.387L1391.973,725.569z"/>
</g>
<g>
	<path fill="#FAFAFF" d="M924.715,464.584c-0.883,0.988-2.398,1.073-3.387,0.19l-0.152-0.136c-0.987-0.883-1.072-2.398-0.189-3.387
		l22.791-25.504c0.883-0.987,2.398-1.072,3.387-0.189l0.15,0.135c0.988,0.883,1.073,2.398,0.19,3.387L924.715,464.584z"/>
	<path fill="#FAFAFF" d="M947.973,462.569c-0.883,0.987-2.398,1.073-3.387,0.19l-25.504-22.791
		c-0.987-0.883-1.072-2.398-0.189-3.387l0.135-0.151c0.883-0.987,2.398-1.073,3.387-0.19l25.504,22.791
		c0.987,0.883,1.072,2.398,0.189,3.387L947.973,462.569z"/>
</g>
<g>
	<path fill="#FAFAFF" d="M1148.715,115.584c-0.883,0.988-2.398,1.073-3.387,0.19l-0.152-0.136c-0.987-0.883-1.072-2.398-0.189-3.387
		l22.791-25.504c0.883-0.987,2.398-1.072,3.387-0.189l0.15,0.135c0.988,0.883,1.073,2.398,0.19,3.387L1148.715,115.584z"/>
	<path fill="#FAFAFF" d="M1171.973,113.569c-0.883,0.987-2.398,1.073-3.387,0.19l-25.504-22.791
		c-0.987-0.883-1.072-2.398-0.189-3.387l0.135-0.151c0.883-0.987,2.398-1.073,3.387-0.19l25.504,22.791
		c0.987,0.883,1.072,2.398,0.189,3.387L1171.973,113.569z"/>
</g>
<path fill="#F5F5FF" d="M408.714,254.584c-0.882,0.988-2.398,1.073-3.386,0.19l-0.152-0.135c-0.988-0.883-1.073-2.399-0.19-3.387
	l22.791-25.504c0.883-0.988,2.399-1.073,3.387-0.19l0.151,0.135c0.988,0.882,1.073,2.398,0.19,3.386L408.714,254.584z"/>
<path fill="#F5F5FF" d="M431.973,252.569c-0.883,0.988-2.399,1.073-3.387,0.19l-25.504-22.791c-0.987-0.883-1.073-2.399-0.19-3.387
	l0.135-0.151c0.883-0.988,2.399-1.073,3.387-0.19l25.504,22.791c0.987,0.883,1.073,2.399,0.19,3.386L431.973,252.569z"/>
<path fill="#F5F5FF" d="M92.189,449.37c-1.237,1.384-3.361,1.504-4.745,0.267l-0.213-0.19c-1.384-1.237-1.503-3.361-0.266-4.746
	l31.936-35.738c1.237-1.384,3.361-1.503,4.746-0.266l0.212,0.189c1.384,1.236,1.503,3.361,0.266,4.745L92.189,449.37z"/>
<path fill="#F5F5FF" d="M124.78,446.546c-1.237,1.384-3.361,1.503-4.746,0.266l-35.738-31.936c-1.384-1.237-1.503-3.361-0.266-4.746
	l0.189-0.212c1.237-1.384,3.361-1.503,4.746-0.266l35.738,31.937c1.384,1.237,1.503,3.361,0.266,4.745L124.78,446.546z"/>
<path fill="#F5F5FF" d="M360.957,503.186c-0.858,0.961-2.332,1.044-3.292,0.186l-0.147-0.133c-0.961-0.858-1.043-2.332-0.185-3.293
	l22.161-24.799c0.858-0.96,2.333-1.043,3.293-0.185l0.147,0.132c0.96,0.858,1.043,2.332,0.185,3.293L360.957,503.186z"/>
<path fill="#F5F5FF" d="M383.573,501.227c-0.858,0.96-2.333,1.044-3.293,0.186l-24.799-22.161c-0.96-0.858-1.043-2.333-0.185-3.294
	l0.131-0.146c0.858-0.96,2.333-1.044,3.293-0.186l24.799,22.161c0.96,0.858,1.043,2.332,0.185,3.293L383.573,501.227z"/>
<path fill="#F5F5FF" d="M228.131,729.978c-0.54,0.604-1.466,0.656-2.07,0.116l-0.093-0.083c-0.604-0.539-0.656-1.466-0.116-2.069
	l13.929-15.587c0.54-0.604,1.466-0.655,2.07-0.115l0.092,0.082c0.604,0.539,0.656,1.466,0.116,2.069L228.131,729.978z"/>
<path fill="#F5F5FF" d="M242.345,728.746c-0.539,0.604-1.466,0.656-2.069,0.117l-15.587-13.929c-0.604-0.54-0.656-1.466-0.116-2.07
	l0.083-0.093c0.539-0.604,1.466-0.655,2.069-0.116l15.587,13.929c0.604,0.54,0.656,1.466,0.116,2.07L242.345,728.746z"/>
<path fill="#F5F5FF" d="M805.526,771.688c-0.399,0.447-1.085,0.485-1.532,0.086l-0.068-0.062c-0.447-0.399-0.485-1.085-0.086-1.531
	l10.31-11.537c0.399-0.447,1.085-0.485,1.532-0.086l0.068,0.061c0.447,0.399,0.485,1.085,0.086,1.532L805.526,771.688z"/>
<path fill="#F5F5FF" d="M816.047,770.777c-0.399,0.446-1.085,0.485-1.532,0.086l-11.538-10.31c-0.446-0.399-0.485-1.085-0.085-1.532
	l0.061-0.068c0.399-0.447,1.085-0.485,1.532-0.086l11.538,10.31c0.446,0.399,0.485,1.085,0.086,1.532L816.047,770.777z"/>
</svg>
