<?xml version="1.0" encoding="utf-8"?>
<!-- Generator: Adobe Illustrator 16.0.0, SVG Export Plug-In . SVG Version: 6.00 Build 0)  -->
<!DOCTYPE svg PUBLIC "-//W3C//DTD SVG 1.1//EN" "http://www.w3.org/Graphics/SVG/1.1/DTD/svg11.dtd">
<svg version="1.1" id="Layer_1" xmlns="http://www.w3.org/2000/svg" xmlns:xlink="http://www.w3.org/1999/xlink" x="0px" y="0px"
	 width="1920px" height="650px" viewBox="0 0 1920 650" enable-background="new 0 0 1920 650" xml:space="preserve">
<path fill="#F9F9FC" d="M322.727,114.294C277.879,220.031,209.194,326.569,93.614,395.745
	c-56.735,33.957-72.851,73.186-60.74,106.672c10.322,28.528,39.804,55.605,112.591,68.095
	c177.842,30.529,328.99-61.571,399.616-130.647C633.7,353.186,685.564,209.606,615.56,99.118
	C533.833-29.88,372.99-4.182,322.727,114.294z"/>
<path fill="#F9F9FC" d="M1650.643,575.103c46.635-65.116,109.613-127.145,198.807-156.601c43.782-14.459,60.729-38.698,57.592-63.33
	c-2.676-20.986-18.611-43.906-66.237-63.499c-116.365-47.882-233.258-8.248-291.846,27.992
	c-73.515,45.478-130.693,135.276-99.897,221.131C1485.013,641.034,1598.381,648.063,1650.643,575.103z"/>
</svg>
