<?xml version="1.0" encoding="utf-8"?>
<!-- Generator: Adobe Illustrator 16.0.0, SVG Export Plug-In . SVG Version: 6.00 Build 0)  -->
<!DOCTYPE svg PUBLIC "-//W3C//DTD SVG 1.1//EN" "http://www.w3.org/Graphics/SVG/1.1/DTD/svg11.dtd">
<svg version="1.1" id="Layer_1" xmlns="http://www.w3.org/2000/svg" xmlns:xlink="http://www.w3.org/1999/xlink" x="0px" y="0px"
	 width="900px" height="854.902px" viewBox="0 0 900 854.902" enable-background="new 0 0 900 854.902" xml:space="preserve">
<path fill="#F7B500" d="M154.255,435.6c138.037,42.222,280.195,114.136,381.785,249.556
	c49.873,66.477,101.014,81.488,141.286,61.968c34.31-16.634,64.299-57.03,70.389-149.644
	c14.887-226.299-120.013-403.173-215.598-482.418C412.175,15.631,225.915-30.409,96.969,71.55
	C-53.581,190.59-0.414,388.273,154.255,435.6z"/>
<linearGradient id="SVGID_1_" gradientUnits="userSpaceOnUse" x1="684.1924" y1="725.5967" x2="218.3212" y2="23.8487">
	<stop  offset="0" style="stop-color:#0042FF"/>
	<stop  offset="0.1819" style="stop-color:#0040FB"/>
	<stop  offset="0.3708" style="stop-color:#0039EE"/>
	<stop  offset="0.5631" style="stop-color:#002DDA"/>
	<stop  offset="0.7576" style="stop-color:#001DBC"/>
	<stop  offset="0.9521" style="stop-color:#000997"/>
	<stop  offset="1" style="stop-color:#00038D"/>
</linearGradient>
<path fill="url(#SVGID_1_)" d="M528.832,151.583c-99.608,104.475-227.606,199.329-394.195,229.454
	C52.858,395.829,16.521,434.82,15.922,479.568c-0.506,38.127,22.166,83.04,102.23,129.989
	c195.628,114.729,414.2,73.401,527.88,23.47c142.639-62.663,267.272-208.536,233.915-369.503
	C841.002,75.591,640.455,34.524,528.832,151.583z"/>
<g>
	<g>
		<g>
			<path fill="#14AFFF" d="M489.592,182.442c0,0-16.608,25.836-12.613,69.326c0,0,124.703-4.802,201.955-129.832l-19.563-18.067
				C659.371,103.869,567.072,195.077,489.592,182.442z"/>
			<path fill="#FFCDA9" d="M669.252,98.052c0,0,0.768-13.353,2.708-17.643c0,0,6.491-23.139,7.739-26.643
				c0,0,5.622-0.859,5.687,6.111c0.061,6.965-2.066,15.469-2.066,15.469s7.562-7.169,10.383-13.233
				c2.827-6.065,8.752-17.881,12.665-19.333c3.912-1.45,4.05,2.901,4.05,2.901s-9.11,18.134-11.033,22.037
				c-1.682,3.434,0.209,3.246,0.209,3.246s15.07-18.219,17.773-21.482c2.704-3.259,5.537-2.986,7.516,0.318
				c0,0-7.984,9.779-12.354,16.21c-1.516,2.245-8.068,8.905-5.446,10.477c0,0,14.542-14.273,16.706-16.977
				c2.158-2.706,5.455-2.11,6.276,1.464l-18.23,20.885c0,0-0.993,1.699,0.337,1.967c1.19,0.252,12.381-6.28,13.39-7.292
				c1.011-1.006,4.445-3.902,6.389-0.778c0,0,0.517,1.161-2.669,3.915c-3.175,2.762-17.802,16.33-17.802,16.33
				s-8.71,9.918-22.587,15.051c-13.978,5.173-18.327,1.1-10.319,3.958l-3.779-7.176L669.252,98.052z"/>
			<polygon fill="#3BFAFF" points="688.956,111.444 669.082,93.909 659.371,103.869 678.934,121.936 			"/>
		</g>
		<path fill="#0091F4" d="M493.825,183.33c0,0,28.137,15.682,45.985,54.003c-11.66,3.743-19.642,7.657-19.642,7.657l-16.699-19.209"
			/>
	</g>
	<path fill="#000F1F" d="M186.393,631.889l-17.055,0.379l1.601,70.774l16.574-50.196c0.615-1.853,0.814-3.807,0.594-5.732
		L186.393,631.889z"/>
	<path fill="#00217A" d="M332.386,419.239l33.654,149.023c0,0-84.516,7.346-183.469,63.778l5.919,19.722l265.118-48.927v-56.031
		l-24.347-64.115"/>
	<path fill="#003591" d="M332.386,419.239c0,0,58.932,108.362,139.566,183.442c0,0-61.669,82.164-65.249,195.18l15.498,8.111
		l103.94-201.948l-50.072-189.773L332.386,419.239z"/>
	<g>
		<path fill="#3BFAFF" d="M505.378,366.643c0,0-20.94-48-10.009-89.135c7.119-4.983,16.248-10.644,19.507-15.304
			c-1.001-20.839-2.574-32.553-5.629-44.35c-6.266-24.252-11.833-40.121-17.41-39.576c-23.021-9.018-31.546-19.621-63.875-11.942
			c-32.88,7.825-61.112,74.664-78.83,163.257C402.292,379.521,505.378,366.643,505.378,366.643z"/>
		<g>
			<g>
				<path fill="#131637" d="M450.927,156.07l-19.841,16.343l0.105-69.254c0,0,0.872-40.847,45.164-44.096
					c35.946-2.637,52.375,21.438,53.042,47.298c1.553,59.902-31.485,76.969-31.485,76.969l-3.72-4.294l-10.64-3.005l-13.444-27.335
					l-1.979,16.1"/>
				<path fill="#FF907D" d="M517.07,102.251c0.035,0.277,7.134,13.129,7.675,23.229h-10.87L517.07,102.251z"/>
				<path fill="#FFCDA9" d="M485.329,157.888l29.511-0.66c0.876-8.896,1.405-10.542,1.979-14.827
					c-10.876,0.713-14.563-7.853-14.563-7.853h15.663c3.733-35.221-1.101-43.812-1.101-43.812l-1.943-4.269
					c-10.658,21.458-38.044,9.429-38.044,9.429c0.904,15.675-13.87,15.976-13.87,15.976c3.843,32.497-17.616,40.529-17.616,40.529
					l-9.123,16.624l32.229,25.824l17.616-2.706l-0.739-3.739v-19.836V157.888z"/>
			</g>
			<path fill="#131637" d="M445.346,160.243c0,2.513-2.041,4.553-4.558,4.553c-2.522,0-4.565-2.04-4.565-4.553
				c0-2.517,2.043-4.563,4.565-4.563C443.305,155.68,445.346,157.726,445.346,160.243z"/>
		</g>
		<path fill="#003C9A" d="M457.936,194.489l13.255,9.993c4.351,3.278,10.631,1.564,12.704-3.483l5.411-13.173l-14.03-0.834
			L457.936,194.489z"/>
		<path fill="#14AFFF" d="M475.275,186.992l-17.146,17.152c0,0-30.168-14.037-30.168-37.808l7.822-8.448
			C435.783,157.888,451.744,179.716,475.275,186.992z"/>
		<path fill="#14AFFF" d="M475.275,186.992l16.281,12.496c0,0,2.282-11.185-6.13-23.808L475.275,186.992z"/>
	</g>
	<path fill="#131637" d="M335.909,359.293c0,0-136.812-18.907-115.438-131.565c16.912-89.127,128.661-67.404,183.138-112.023
		c38.276-31.349,38.662-60.627,84.191-56.493c-41.076,25.442-33.687,82.416-33.687,82.416l-26.151,37.303
		c0,0,0,23.241-33.181,46.051C371.191,241.19,335.909,359.293,335.909,359.293z"/>
	<polyline opacity="0.3" fill="#001F5F" points="499.81,504.229 355.188,520.214 349.131,491.833 	"/>
	<path fill="#FFFFFF" d="M528.604,502.649h-165.87c-19.126,0-34.638-15.502-34.638-34.638V302.147
		c0-19.128,15.512-34.639,34.638-34.639h165.87c19.131,0,34.635,15.511,34.635,34.639v165.865
		C563.239,487.147,547.735,502.649,528.604,502.649z"/>
	<path fill="#F7B500" d="M535.461,372.696c0-27.944-22.659-50.598-50.601-50.598c-15.902,0-29.91,7.486-39.193,18.964
		c-9.274-11.478-23.291-18.964-39.192-18.964c-27.939,0-50.591,22.654-50.591,50.598c0,16.24,7.785,30.532,19.683,39.786
		l-0.069,0.168l1.274,0.831c1.153,0.836,2.346,1.593,3.568,2.333l65.327,42.774l65.328-42.774c1.231-0.74,2.417-1.497,3.575-2.333
		l1.273-0.831l-0.071-0.168C527.67,403.229,535.461,388.936,535.461,372.696z"/>
	<path fill="#FFFFFF" d="M245.401,127.804c0-20.806-16.867-37.666-37.674-37.666c-11.849,0-22.279,5.577-29.192,14.115
		c-6.905-8.538-17.337-14.115-29.186-14.115c-20.806,0-37.672,16.859-37.672,37.666c0,12.098,5.8,22.746,14.659,29.638l-0.048,0.122
		l0.945,0.62c0.854,0.627,1.747,1.186,2.659,1.742l48.644,31.855l48.652-31.855c0.912-0.556,1.803-1.115,2.659-1.742l0.944-0.62
		l-0.047-0.122C239.601,150.55,245.401,139.902,245.401,127.804z"/>
	<path fill="#FFFFFF" d="M368.206,60.664c0-12.488-10.118-22.606-22.603-22.606c-7.107,0-13.36,3.348-17.511,8.468
		c-4.142-5.12-10.404-8.468-17.503-8.468c-12.483,0-22.601,10.118-22.601,22.606c0,7.251,3.475,13.638,8.79,17.772l-0.033,0.069
		l0.574,0.379c0.509,0.37,1.046,0.704,1.592,1.037l29.181,19.112l29.189-19.112c0.545-0.333,1.076-0.667,1.593-1.037l0.566-0.379
		l-0.028-0.069C364.727,74.301,368.206,67.915,368.206,60.664z"/>
	<path fill="#FFFFFF" d="M254.372,41.25c0-8.88-7.193-16.077-16.069-16.077c-5.055,0-9.506,2.383-12.46,6.027
		c-2.944-3.644-7.397-6.027-12.452-6.027c-8.876,0-16.078,7.197-16.078,16.077c0,5.157,2.476,9.698,6.261,12.652l-0.024,0.049
		l0.403,0.26c0.366,0.268,0.741,0.505,1.131,0.741l20.758,13.593l20.766-13.593c0.381-0.235,0.761-0.473,1.127-0.741l0.407-0.26
		l-0.024-0.049C251.903,50.948,254.372,46.407,254.372,41.25z"/>
	<path fill="#00237B" d="M475.508,206.139c0,0-4.467,55.34,33.977,61.369c58.151,9.123,59.358,48.52,59.358,48.52l13.418,6.07
		l9.981-25.996c0,0,7.627-33.19-48.845-44.661c-32.553-6.606-65.541-8.089-64.105-46.1"/>
	<polygon fill="#000F1F" points="407.509,793.668 398.087,807.894 457.103,846.987 426.519,806.265 	"/>
</g>
<g>
	<path fill="#D2EAFF" d="M443,263.72c0,0-33.051,82.993,3.723,198.359l-36.774,6.381c0,0-90.74-124.016-5.8-268.972
		C404.148,199.488,451.591,208.372,443,263.72z"/>
	<path fill="#14AFFF" d="M443,263.72c0,0-60.447,82.993,3.723,198.359l-36.774,6.381c0,0-90.74-124.016-5.8-268.972
		C404.148,199.488,451.591,208.372,443,263.72z"/>
	<path fill="#131637" d="M457.936,140.958c0,0,17.122,67.772-71.681,77.836c-24.64-43.718,14.855-67.554,14.855-67.554
		L457.936,140.958z"/>
	<path fill="#FFCDA9" d="M445.9,463.805l5.776,17.005l13.555,2.867l18.928,3.159c0,0-2.646,4.607-5.917,5.92
		c-4.553,1.82-9.484,1.281-9.484,1.281l2.885,8.507l16.156,0.105l-23.366,11.305l-18.765,5.907l-16.407-8.978l-3.096-21.032
		l-5.043-6.209L445.9,463.805z"/>
	<polygon fill="#3BFAFF" points="420.284,488.107 450.776,469.989 441.065,451.049 409.949,468.46 	"/>
</g>
</svg>
