<?xml version="1.0" encoding="utf-8"?>
<!-- Generator: Adobe Illustrator 16.0.0, SVG Export Plug-In . SVG Version: 6.00 Build 0)  -->
<!DOCTYPE svg PUBLIC "-//W3C//DTD SVG 1.1//EN" "http://www.w3.org/Graphics/SVG/1.1/DTD/svg11.dtd">
<svg version="1.1" id="Layer_1" xmlns="http://www.w3.org/2000/svg" xmlns:xlink="http://www.w3.org/1999/xlink" x="0px" y="0px"
	 width="1154px" height="934.667px" viewBox="0 0 1154 934.667" enable-background="new 0 0 1154 934.667" xml:space="preserve">
<g>
	<g>
		<rect x="496.247" y="342.747" fill="#131637" width="168.041" height="206.275"/>
		<circle fill="#131637" cx="510.466" cy="526.4" r="61.273"/>
		<circle fill="#131637" cx="650.067" cy="526.4" r="61.273"/>
		<path fill="#131637" d="M731.4,569.769c0,37.058-30.046,67.103-67.113,67.103c-37.054,0-67.099-30.045-67.099-67.103
			c0-37.065,30.045-67.11,67.099-67.11C701.354,502.659,731.4,532.704,731.4,569.769z"/>
		<path fill="#131637" d="M554.292,569.769c0,37.058-30.044,67.103-67.11,67.103c-37.057,0-67.101-30.045-67.101-67.103
			c0-37.065,30.044-67.11,67.101-67.11C524.248,502.659,554.292,532.704,554.292,569.769z"/>
		<path fill="#131637" d="M677.063,461.099c0,8.411-6.818,15.218-15.218,15.218c-8.411,0-15.217-6.808-15.217-15.218
			c0-8.402,6.806-15.219,15.217-15.219C670.245,445.879,677.063,452.697,677.063,461.099z"/>
		<path fill="#131637" d="M511.175,461.099c0,8.411-6.816,15.218-15.218,15.218c-8.401,0-15.219-6.808-15.219-15.218
			c0-8.402,6.818-15.219,15.219-15.219C504.359,445.879,511.175,452.697,511.175,461.099z"/>
		<g>
			<path fill="#14AFFF" d="M520.472,505.392c0,0-93.034,73.731-109.865,167.688c-20.98,117.063,59.288,167.688,59.288,167.688
				l9.829-59.008c0,0-27.006-37.646-22.475-69.676c5.819-41.187,37.392-71.185,37.392-71.185S535.942,577.882,520.472,505.392z"/>
			<path fill="#0091F4" d="M498.102,588.196l18.799-79.568c0,0-74.15,61.943-56.789,190.049l0.047-0.065
				c9.679-34.082,34.482-57.711,34.482-57.711s0.403-0.951,1.065-2.74L498.102,588.196z"/>
			<g>
				<g>
					<path fill="#14AFFF" d="M621.405,496.552c0,0-23.837,37.074-18.101,99.478c0,0,178.935-6.892,289.777-186.292l-28.067-25.933
						C865.015,383.805,732.573,514.677,621.405,496.552z"/>
					<path fill="#FFCDA9" d="M879.198,375.469c0,0,1.101-19.172,3.869-25.317c0,0,9.326-33.196,11.115-38.231
						c0,0,8.074-1.232,8.16,8.764c0.083,9.997-2.964,22.203-2.964,22.203s10.853-10.286,14.9-18.994
						c4.056-8.71,12.551-25.654,18.173-27.733c5.612-2.079,5.809,4.159,5.809,4.159s-13.074,26.016-15.832,31.62
						c-2.417,4.924,0.298,4.662,0.298,4.662s21.624-26.155,25.514-30.828c3.878-4.671,7.925-4.289,10.77,0.457
						c0,0-11.441,14.025-17.718,23.256c-2.183,3.217-11.581,12.775-7.813,15.041c0,0,20.86-20.497,23.964-24.365
						c3.105-3.879,7.834-3.031,9.018,2.106l-26.156,29.961c0,0-1.436,2.435,0.465,2.825c1.717,0.354,17.776-9.016,19.221-10.462
						c1.455-1.444,6.379-5.595,9.165-1.119c0,0,0.738,1.66-3.823,5.614c-4.559,3.972-25.54,23.433-25.54,23.433
						s-12.507,14.23-32.414,21.597c-20.058,7.413-26.294,1.567-14.816,5.688l-5.417-10.293L879.198,375.469z"/>
					<polygon fill="#3BFAFF" points="907.47,394.678 878.955,369.518 865.015,383.805 893.082,409.738 					"/>
				</g>
				<path fill="#0091F4" d="M627.483,497.819c0,0,40.359,22.512,65.974,77.49c-16.72,5.379-28.18,10.995-28.18,10.995
					l-23.953-27.567"/>
			</g>
			<path fill="#3BFAFF" d="M683.89,614.911c0-43.22-37.261-121.146-71.577-121.146h4.924h-36.461h-0.028H549.21l0,0
				c-51.361,0-77.498,102.609-77.432,119.768c0.055,13.94,19.497,26.79,20.337,42.828c2.274,43.146-1.39,96.028,3.841,154.046
				c0,0,17.689,35.862,84.808,28.311c67.112,7.552,73.258-25.132,73.258-25.132c5.278-58.474,7.479-115.264,9.724-158.632
				C666.135,638.16,683.89,633.002,683.89,614.911z"/>
			<rect x="617.654" y="584.998" fill="#14AFFF" width="47.688" height="14.023"/>
			<polygon fill="#001F78" points="586.696,522.083 578.325,522.083 578.358,524.646 574.827,522.083 549.21,725.849 
				580.765,733.291 612.313,725.849 			"/>
			<path opacity="0.51" fill="#3BD2FF" d="M492.927,683.188c1.53,24.738,3.58,51.566,5.949,80.632l49.832,6.771l118.482-12.301
				c0,0,7.505-6.659,15.433-16.587c1.659-21.037,3.075-40.733,4.222-59.316C592.496,713.318,515.66,691.318,492.927,683.188z"/>
			<path fill="#003591" d="M587.647,527.77l9.428-9.437l-16.311-16.318l-16.317,16.318l9.438,9.437
				C577.681,531.566,583.845,531.566,587.647,527.77z"/>
			<g>
				<g>
					<g>
						<path fill="#FFB59C" d="M612.694,391.004c0,12.43,10.08,22.5,22.511,22.5c12.43,0,22.511-10.07,22.511-22.5
							s-10.081-22.511-22.511-22.511C622.774,368.493,612.694,378.574,612.694,391.004z"/>
						<path fill="#FF9F7C" d="M620.125,391.004c0,8.326,6.753,15.077,15.08,15.077c8.325,0,15.078-6.751,15.078-15.077
							c0-8.328-6.753-15.079-15.078-15.079C626.878,375.925,620.125,382.676,620.125,391.004z"/>
					</g>
					<g>
						<path fill="#FFB59C" d="M502.232,391.004c0,12.43,10.081,22.5,22.511,22.5c12.429,0,22.51-10.07,22.51-22.5
							s-10.081-22.511-22.51-22.511C512.313,368.493,502.232,378.574,502.232,391.004z"/>
						<circle fill="#FF9F7C" cx="524.743" cy="391.004" r="15.079"/>
					</g>
					<rect x="544.418" y="430.047" fill="#FFB899" width="72.612" height="72.612"/>
					<path fill="#FFCDA9" d="M586.911,295.733l-9.726,4.25l-2.649-4.25l-54.457,41.083v74.692
						c11.143,47.707,60.641,67.382,60.641,67.382s49.504-19.675,60.637-67.382v-74.692L586.911,295.733z"/>
					<polygon fill="#FF907D" points="588.982,415.369 580.721,380.915 572.458,415.369 					"/>
				</g>
				<path fill="#FFFFFF" d="M580.721,452.575c13.921,0,25.212-11.283,25.212-25.214h-50.417
					C555.515,441.292,566.798,452.575,580.721,452.575z"/>
			</g>
			<g>
				<path fill="#14AFFF" d="M580.765,502.659L557.025,526.4c0,0-35.827-14.837-14.5-48.77
					C542.526,477.63,556.326,496.45,580.765,502.659z"/>
				<path fill="#14AFFF" d="M580.765,502.659l23.741,23.741c0,0,35.817-14.837,14.494-48.77
					C619,477.63,605.196,496.45,580.765,502.659z"/>
			</g>
			<path fill="#FFFFFF" d="M714.363,830.92H447.16V670.795c0-10.966,8.888-19.844,19.844-19.844h227.516
				c10.955,0,19.843,8.878,19.843,19.844V830.92z"/>
			<linearGradient id="SVGID_1_" gradientUnits="userSpaceOnUse" x1="458.7324" y1="736.9956" x2="587.5717" y2="865.8349">
				<stop  offset="0" style="stop-color:#E2F3F8"/>
				<stop  offset="1" style="stop-color:#D7E4FF"/>
			</linearGradient>
			<path fill="url(#SVGID_1_)" d="M580.263,818.137c0,0-51.706-53.218-133.103-77.201v24.88L580.263,818.137z"/>
			
				<linearGradient id="SVGID_2_" gradientUnits="userSpaceOnUse" x1="762.6924" y1="736.9956" x2="891.5325" y2="865.8357" gradientTransform="matrix(-1 0 0 1 1465.4824 0)">
				<stop  offset="0" style="stop-color:#E2F3F8"/>
				<stop  offset="1" style="stop-color:#D7E4FF"/>
			</linearGradient>
			<path fill="url(#SVGID_2_)" d="M581.261,818.137c0,0,51.715-53.218,133.103-77.201v24.88L581.261,818.137z"/>
		</g>
		<g>
			<g>
				<path fill="#002A88" d="M396.461,884.856v34.669c0,0,190.599-20.542,328.364-51.36c0,0,62.712-19.35,141.038-62.999
					c0,0-8.989-65.496-86.03-64.21c-77.041,1.287-195.896,75.847-195.896,75.847L396.461,884.856z"/>
				<polyline fill="#001F5F" points="581.261,894.741 576.374,893.845 435.708,868.165 396.461,884.856 396.461,919.525 				"/>
				<path fill="#001F5F" d="M724.825,868.165l41.916-37.244l99.122-25.755C865.863,805.166,814.997,850.448,724.825,868.165z"/>
			</g>
			<g>
				<path fill="#003591" d="M764.073,884.856v34.669c0,0-190.599-20.542-328.365-51.36c0,0-78.477-19.35-156.805-62.999
					c0,0,8.989-65.496,86.031-64.21c77.041,1.287,211.656,75.847,211.656,75.847L764.073,884.856z"/>
				<path fill="#001F5F" d="M435.708,868.165l-41.923-37.244l-114.882-25.755C278.903,805.166,345.538,850.448,435.708,868.165z"/>
			</g>
		</g>
		<path fill="#000F1F" d="M396.461,919.525c0,0-34.251,6.126-117.558,10.752v-28.543l89.733-28.366l27.825,11.488V919.525z"/>
		<path fill="#000F1F" d="M764.073,919.525c0,0,34.241,6.126,117.558,10.752v-28.543l-89.731-28.366l-27.826,11.488V919.525z"/>
	</g>
	<path fill="#131637" d="M611.921,318.055c0,0-17.345,47.016-75.756,36.665c0,0,1.791,13.95-18.648,19.723v-12.429l-18.604-12.878
		l-1.836-6.053l12.317-39.377l40.087-7.972l31.715,5.575h51.173l20.824,18.333l-9.297,42.857v11.945c0,0-15.509-4.579-13.915-23.713
		C629.981,350.73,611.388,334.784,611.921,318.055z"/>
	<path fill="#131637" d="M496.247,343.997c0,0-0.29-112.568,115.916-63.893c0,0,52.125-11.19,52.125,55.931c0,3.058,0,7.962,0,7.962
		l-2.441,9.698l-36.066-22.827l-26.653-19.274l-27.068,2.853L496.247,343.997z"/>
	<path fill="#008EFF" d="M739.326,106.345h292.912c45.886,0,83.095,37.206,83.095,83.093l0,0c0,45.887-37.209,83.093-83.095,83.093
		H785.131l-55.959,49.078v-50.084c-23.688-4.717-41.552-25.614-41.552-50.698v-62.775
		C687.62,129.499,710.773,106.345,739.326,106.345z"/>
	<path fill="#3BFAFF" d="M790.015,191.06c0,14.257-11.561,25.822-25.818,25.822c-14.259,0-25.821-11.564-25.821-25.822
		s11.563-25.82,25.821-25.82C778.454,165.24,790.015,176.803,790.015,191.06z"/>
	<path fill="#3BFAFF" d="M879.198,191.06c0,14.257-11.563,25.822-25.829,25.822c-14.257,0-25.821-11.564-25.821-25.822
		s11.564-25.82,25.821-25.82C867.636,165.24,879.198,176.803,879.198,191.06z"/>
	<path fill="#3BFAFF" d="M968.371,191.06c0,14.257-11.563,25.822-25.82,25.822c-14.267,0-25.82-11.564-25.82-25.822
		s11.554-25.82,25.82-25.82C956.809,165.24,968.371,176.803,968.371,191.06z"/>
</g>
<g>
	<path fill="#3BFAFF" d="M56.702,391.013L15.663,552.826c-8.943,35.296,12.403,71.159,47.696,80.111l161.833,41.038
		c30.128,7.646,60.527-6.91,74.393-33.253l57.721,14.642l-41.645-69.937l30.679-120.963c8.943-35.303-12.412-71.167-47.696-80.119
		l-161.833-41.047C101.516,334.346,65.653,355.709,56.702,391.013z"/>
	<path fill="#001895" d="M189.161,415.994c-26.688-6.761-53.804,9.391-60.574,36.069c-4.335,17.092,0.774,34.343,11.993,46.325
		c-15.582,5.204-28.283,17.923-32.619,35.035c-6.771,26.676,9.38,53.794,36.068,60.564c18.472,4.682,37.15-1.633,49.142-14.819
		l53.17-53.953l-21.027-72.779C221.052,435.147,207.633,420.693,189.161,415.994z"/>
</g>
<g>
	<g>
		<path fill="#3BFAFF" d="M1136.777,563.375l-69.852-109.131c-15.238-23.806-46.876-30.743-70.685-15.507l-109.117,69.852
			c-20.319,13.009-28.218,37.944-20.654,59.772l-38.922,24.918l61.693,13.539l52.22,81.574
			c15.234,23.806,46.876,30.743,70.681,15.507l109.128-69.844C1145.066,618.819,1152.013,587.179,1136.777,563.375z"/>
	</g>
	<path fill="#001895" d="M971.971,517.606c-29.131,18.65-37.636,57.366-18.984,86.498c18.638,29.12,57.366,37.625,86.496,18.986
		c29.131-18.652,37.616-57.375,18.978-86.5C1039.818,507.459,1001.092,498.965,971.971,517.606z"/>
	<g>
		<g>
			<path fill="#3BFAFF" d="M1010.127,558c-0.623-0.969-0.344-2.265,0.625-2.889c2.649-1.697,3.423-5.213,1.735-7.86
				c-1.688-2.64-5.223-3.422-7.871-1.726c-0.979,0.623-2.266,0.336-2.893-0.643c-0.623-0.973-0.341-2.266,0.636-2.882
				c4.598-2.946,10.714-1.604,13.661,2.983c2.939,4.597,1.594,10.714-3.003,13.66C1012.04,559.271,1010.752,558.98,1010.127,558z"/>
		</g>
		<g>
			<path fill="#3BFAFF" d="M1026.726,583.942c-0.613-0.968-0.344-2.265,0.636-2.888c2.648-1.698,3.422-5.214,1.732-7.852
				c-1.695-2.649-5.22-3.423-7.869-1.729c-0.969,0.627-2.265,0.33-2.892-0.643c-0.624-0.969-0.346-2.273,0.634-2.889
				c4.599-2.946,10.716-1.604,13.662,2.991c2.936,4.59,1.594,10.704-3.012,13.651
				C1028.646,585.212,1027.351,584.921,1026.726,583.942z"/>
		</g>
	</g>
	<path fill="#FFFFFF" d="M973.575,590.917c9.911,15.48,30.489,20.005,45.979,10.091l-35.891-56.07
		C968.185,554.85,963.661,575.439,973.575,590.917z"/>
</g>
<g>
	<g>
		<path fill="#008EFF" d="M418.439,162.004l16.785,45.04l-45.803-17.924c-15.068,9.26-32.748,14.696-51.743,14.696
			c-54.719,0-99.077-44.358-99.077-99.085c0-54.719,44.357-99.077,99.077-99.077c54.728,0,99.085,44.358,99.085,99.077
			C436.763,126.095,429.937,145.826,418.439,162.004z"/>
	</g>
	<g>
		<path fill="#FFFFFF" d="M326.842,157.323c-4.542,0-9.083-1.734-12.552-5.203l-28.086-28.087c-6.928-6.929-6.928-18.164,0-25.093
			c6.938-6.929,18.165-6.929,25.102,0l15.536,15.536l48.134-48.135c6.929-6.929,18.156-6.929,25.094,0
			c6.928,6.937,6.928,18.164,0,25.093l-60.687,60.686C335.925,155.589,331.384,157.323,326.842,157.323z"/>
	</g>
</g>
</svg>
